<?xml version="1.0" encoding="UTF-8"?>
<!DOCTYPE svg PUBLIC "-//W3C//DTD SVG 1.1//EN" "http://www.w3.org/Graphics/SVG/1.1/DTD/svg11.dtd">
<svg id="icon24" xmlns="http://www.w3.org/2000/svg" width="24px" height="24px" version="1.1" viewBox="0 0 1.58 1.58" xmlns:xlink="http://www.w3.org/1999/xlink">
	<path id="icon_close.svg" class="fil1" d="M1.15 0.33c0.03,-0.02 0.07,-0.02 0.1,0 0.02,0.03 0.02,0.07 0,0.09l-0.37 0.37 0.37 0.36c0.02,0.03 0.02,0.07 0,0.1 -0.03,0.02 -0.07,0.02 -0.1,0l-0.36 -0.37 -0.37 0.37c0,0 0,0 0,0 -0.02,0.02 -0.06,0.02 -0.09,0 -0.02,-0.02 -0.02,-0.05 -0.01,-0.07 0,-0.01 0.01,-0.02 0.01,-0.03l0.37 -0.36 -0.37 -0.37c-0.02,-0.02 -0.02,-0.06 0,-0.09 0.03,-0.02 0.07,-0.02 0.09,0l0.37 0.37 0.36 -0.37z"/>
</svg>
